<?xml version="1.0" encoding="utf-8"?>
<!-- Generator: Adobe Illustrator 23.0.1, SVG Export Plug-In . SVG Version: 6.00 Build 0)  -->
<svg version="1.1" id="Layer_1" xmlns="http://www.w3.org/2000/svg" xmlns:xlink="http://www.w3.org/1999/xlink" x="0px" y="0px"
	 viewBox="0 0 1920 1080" style="enable-background:new 0 0 1920 1080;" xml:space="preserve">
<style type="text/css">
	.st0{fill:#D8DEE9;}
	.st1{fill:#FFFFFF;stroke:#2E3440;stroke-miterlimit:10;}
	.st2{fill:#3E00DF;}
	.st3{fill:none;stroke:#000000;stroke-width:5;stroke-miterlimit:10;}
	.st4{fill:#D8DEE9;stroke:#2E3440;stroke-width:20;stroke-miterlimit:10;}
</style>
<g>
	<rect class="st0" width="1920" height="1080"/>
</g>
<path class="st0" d="M977,0"/>
<rect x="70.5" y="419.5" class="st1" width="321" height="241"/>
<rect x="542.5" y="419.5" class="st1" width="321" height="241"/>
<rect x="1013.5" y="418.5" class="st1" width="321" height="241"/>
<rect x="1484.5" y="419.5" class="st1" width="321" height="241"/>
<g>
	<line class="st2" x1="542.5" y1="540" x2="391.5" y2="540"/>
	<g>
		<line class="st3" x1="516.2" y1="540" x2="391.5" y2="540"/>
		<g>
			<polygon points="512.1,570.4 512.1,509.6 542.5,540 			"/>
		</g>
	</g>
</g>
<g>
	<line class="st2" x1="1014" y1="539.5" x2="863" y2="539.5"/>
	<g>
		<line class="st3" x1="987.7" y1="539.5" x2="863" y2="539.5"/>
		<g>
			<polygon points="983.6,569.9 983.6,509.1 1014,539.5 			"/>
		</g>
	</g>
</g>
<g>
	<line class="st2" x1="1485" y1="538.5" x2="1334" y2="538.5"/>
	<g>
		<line class="st3" x1="1458.7" y1="538.5" x2="1334" y2="538.5"/>
		<g>
			<polygon points="1454.6,568.9 1454.6,508.1 1485,538.5 			"/>
		</g>
	</g>
</g>
<line class="st4" x1="250" y1="419.5" x2="250" y2="659.5"/>
<g>
	<g>
		<path d="M322.2,490.7c-7.9,0-11.8-5.9-11.8-17.6c0-12,3.9-18.1,11.8-18.1c7.9,0,11.8,6,11.8,18.1C334,484.8,330,490.7,322.2,490.7
			z M322.2,486.2c4.4,0,6.6-4.4,6.6-13.1c0-9-2.2-13.6-6.6-13.6s-6.6,4.5-6.6,13.6C315.6,481.8,317.8,486.2,322.2,486.2z
			 M322.2,476.7c-1.1,0-2-0.3-2.6-1c-0.7-0.7-1-1.6-1-2.6c0-1.1,0.3-2,1-2.7c0.7-0.7,1.6-1,2.6-1c1.1,0,2,0.3,2.7,1
			c0.7,0.7,1,1.6,1,2.7c0,1.1-0.3,2-1,2.6C324.2,476.4,323.3,476.7,322.2,476.7z"/>
		<path d="M328.4,540.2l-7.9-11.2l-10.4-14.7h5.9l8,11.6l10.3,14.3H328.4z M310.1,540.2l10.3-14.3l8-11.6h5.9L323.5,529l-7.6,11.2
			H310.1z"/>
		<path d="M309.2,574.4v-4.2h23.9v4.2H309.2z M317.3,590.2v-23.7c0-9,4.1-13.4,12.3-13.4c1.9,0,3.6,0.2,5.4,0.5l-0.5,4.5
			c-1-0.1-1.9-0.2-2.7-0.3s-1.5-0.1-2.3-0.1c-4.6,0-6.9,2.8-6.9,8.5v23.9H317.3z"/>
		<path d="M309.2,624.4v-4.2h23.9v4.2H309.2z M317.3,640.2v-23.7c0-9,4.1-13.4,12.3-13.4c1.9,0,3.6,0.2,5.4,0.5l-0.5,4.5
			c-1-0.1-1.9-0.2-2.7-0.3s-1.5-0.1-2.3-0.1c-4.6,0-6.9,2.8-6.9,8.5v23.9H317.3z"/>
	</g>
</g>
<line class="st4" x1="703" y1="420" x2="703" y2="660"/>
<g>
	<g>
		<path d="M775.1,491.2c-7.9,0-11.8-5.9-11.8-17.6c0-12,3.9-18.1,11.8-18.1c7.9,0,11.8,6,11.8,18.1
			C786.9,485.3,783,491.2,775.1,491.2z M775.1,486.7c4.4,0,6.6-4.4,6.6-13.1c0-9-2.2-13.6-6.6-13.6s-6.6,4.5-6.6,13.6
			C768.5,482.3,770.7,486.7,775.1,486.7z M775.1,477.2c-1.1,0-2-0.3-2.6-1c-0.7-0.7-1-1.6-1-2.6c0-1.1,0.3-2,1-2.7
			c0.7-0.7,1.6-1,2.6-1c1.1,0,2,0.3,2.7,1c0.7,0.7,1,1.6,1,2.7c0,1.1-0.3,2-1,2.6C777.1,476.9,776.2,477.2,775.1,477.2z"/>
		<path d="M781.3,540.7l-7.9-11.2l-10.4-14.7h5.9l8,11.6l10.3,14.3H781.3z M763.1,540.7l10.3-14.3l8-11.6h5.9l-10.7,14.7l-7.6,11.2
			H763.1z"/>
		<path d="M762.1,574.9v-4.2h23.9v4.2H762.1z M770.3,590.7V567c0-9,4.1-13.4,12.3-13.4c1.9,0,3.6,0.2,5.4,0.5l-0.5,4.5
			c-1-0.1-1.9-0.2-2.7-0.3s-1.5-0.1-2.3-0.1c-4.6,0-6.9,2.8-6.9,8.5v23.9H770.3z"/>
		<path d="M762.1,624.9v-4.2h23.9v4.2H762.1z M770.3,640.7V617c0-9,4.1-13.4,12.3-13.4c1.9,0,3.6,0.2,5.4,0.5l-0.5,4.5
			c-1-0.1-1.9-0.2-2.7-0.3s-1.5-0.1-2.3-0.1c-4.6,0-6.9,2.8-6.9,8.5v23.9H770.3z"/>
	</g>
</g>
<line class="st4" x1="1174" y1="420" x2="1174" y2="660"/>
<g>
	<g>
		<path d="M1246.1,491.2c-7.9,0-11.8-5.9-11.8-17.6c0-12,3.9-18.1,11.8-18.1c7.9,0,11.8,6,11.8,18.1
			C1257.9,485.3,1254,491.2,1246.1,491.2z M1246.1,486.7c4.4,0,6.6-4.4,6.6-13.1c0-9-2.2-13.6-6.6-13.6s-6.6,4.5-6.6,13.6
			C1239.5,482.3,1241.7,486.7,1246.1,486.7z M1246.1,477.2c-1.1,0-2-0.3-2.6-1c-0.7-0.7-1-1.6-1-2.6c0-1.1,0.3-2,1-2.7
			c0.7-0.7,1.6-1,2.6-1c1.1,0,2,0.3,2.7,1c0.7,0.7,1,1.6,1,2.7c0,1.1-0.3,2-1,2.6C1248.1,476.9,1247.2,477.2,1246.1,477.2z"/>
		<path d="M1252.3,540.7l-7.9-11.2l-10.4-14.7h5.9l8,11.6l10.3,14.3H1252.3z M1234.1,540.7l10.3-14.3l8-11.6h5.9l-10.7,14.7
			l-7.6,11.2H1234.1z"/>
		<path d="M1233.1,574.9v-4.2h23.9v4.2H1233.1z M1241.3,590.7V567c0-9,4.1-13.4,12.3-13.4c1.9,0,3.6,0.2,5.4,0.5l-0.5,4.5
			c-1-0.1-1.9-0.2-2.7-0.3s-1.5-0.1-2.3-0.1c-4.6,0-6.9,2.8-6.9,8.5v23.9H1241.3z"/>
		<path d="M1233.1,624.9v-4.2h23.9v4.2H1233.1z M1241.3,640.7V617c0-9,4.1-13.4,12.3-13.4c1.9,0,3.6,0.2,5.4,0.5l-0.5,4.5
			c-1-0.1-1.9-0.2-2.7-0.3s-1.5-0.1-2.3-0.1c-4.6,0-6.9,2.8-6.9,8.5v23.9H1241.3z"/>
	</g>
</g>
<line class="st4" x1="1645" y1="418" x2="1645" y2="658"/>
<g>
	<g>
		<path d="M1717.1,489.2c-7.9,0-11.8-5.9-11.8-17.6c0-12,3.9-18.1,11.8-18.1c7.9,0,11.8,6,11.8,18.1
			C1728.9,483.3,1725,489.2,1717.1,489.2z M1717.1,484.7c4.4,0,6.6-4.4,6.6-13.1c0-9-2.2-13.6-6.6-13.6s-6.6,4.5-6.6,13.6
			C1710.5,480.3,1712.7,484.7,1717.1,484.7z M1717.1,475.2c-1.1,0-2-0.3-2.6-1c-0.7-0.7-1-1.6-1-2.6c0-1.1,0.3-2,1-2.7
			c0.7-0.7,1.6-1,2.6-1c1.1,0,2,0.3,2.7,1c0.7,0.7,1,1.6,1,2.7c0,1.1-0.3,2-1,2.6C1719.1,474.9,1718.2,475.2,1717.1,475.2z"/>
		<path d="M1723.3,538.7l-7.9-11.2l-10.4-14.7h5.9l8,11.6l10.3,14.3H1723.3z M1705.1,538.7l10.3-14.3l8-11.6h5.9l-10.7,14.7
			l-7.6,11.2H1705.1z"/>
		<path d="M1704.1,572.9v-4.2h23.9v4.2H1704.1z M1712.3,588.7V565c0-9,4.1-13.4,12.3-13.4c1.9,0,3.6,0.2,5.4,0.5l-0.5,4.5
			c-1-0.1-1.9-0.2-2.7-0.3s-1.5-0.1-2.3-0.1c-4.6,0-6.9,2.8-6.9,8.5v23.9H1712.3z"/>
		<path d="M1704.1,622.9v-4.2h23.9v4.2H1704.1z M1712.3,638.7V615c0-9,4.1-13.4,12.3-13.4c1.9,0,3.6,0.2,5.4,0.5l-0.5,4.5
			c-1-0.1-1.9-0.2-2.7-0.3s-1.5-0.1-2.3-0.1c-4.6,0-6.9,2.8-6.9,8.5v23.9H1712.3z"/>
	</g>
</g>
</svg>
