<?xml version="1.0" encoding="utf-8"?>
<!-- Generator: Adobe Illustrator 23.0.1, SVG Export Plug-In . SVG Version: 6.00 Build 0)  -->
<svg version="1.1" id="Layer_1" xmlns="http://www.w3.org/2000/svg" xmlns:xlink="http://www.w3.org/1999/xlink" x="0px" y="0px"
	 viewBox="0 0 185.1 217" style="enable-background:new 0 0 185.1 217;" xml:space="preserve">
<style type="text/css">
	.st0{fill:#ECEFF4;}
	.st1{fill:#292E38;}
</style>
<g>
	<rect x="14.5" y="33.3" class="st0" width="152.5" height="128"/>
	<path class="st1" d="M163.4,0H21.7C9.8,0,0,10,0,22.3v146.4C0,181,9.8,191,21.7,191h119.9l-5.6-20.1l13.5,12.9l12.8,12.1l22.8,20.6
		V22.3C185.1,10,175.3,0,163.4,0z M122.5,141.4c0,0-3.8-4.7-7-8.7c13.9-4,19.2-12.9,19.2-12.9c-4.3,2.9-8.5,5-12.1,6.4
		c-5.3,2.3-10.3,3.8-15.3,4.7c-10.1,1.9-19.4,1.4-27.4-0.1c-6-1.2-11.2-2.9-15.5-4.7c-2.5-1-5.1-2.1-7.7-3.7
		c-0.3-0.2-0.7-0.3-0.9-0.5c-0.2-0.1-0.3-0.2-0.4-0.3c-1.9-1.1-3-1.9-3-1.9s5.1,8.7,18.5,12.8c-3.2,4.1-7.1,9-7.1,9
		C40.3,140.7,31.4,125,31.4,125c0-34.9,15.3-63.1,15.3-63.1c15.3-11.7,29.7-11.4,29.7-11.4l1.1,1.3C58.4,57.4,49.6,66,49.6,66
		s2.3-1.3,6.2-3.1c11.4-5.1,20.3-6.5,24-6.8c0.7-0.1,1.2-0.2,1.8-0.2c6.4-0.9,13.7-1.1,21.3-0.2c10,1.2,20.8,4.2,31.8,10.4
		c0,0-8.4-8.1-26.3-13.8l1.4-1.7c0,0,14.5-0.3,29.7,11.4c0,0,15.3,28.3,15.3,63.1C154.9,124.9,146,140.6,122.5,141.4z M73.4,90.8
		c-6,0-10.8,5.4-10.8,12s4.8,12,10.8,12c6,0,10.8-5.4,10.8-12C84.3,96.2,79.5,90.8,73.4,90.8 M112,90.8c-6,0-10.8,5.4-10.8,12
		s4.8,12,10.8,12c6,0,10.8-5.4,10.8-12C122.8,96.2,118.1,90.8,112,90.8"/>
</g>
</svg>
