<?xml version="1.0" encoding="utf-8"?>
<!-- Generator: Adobe Illustrator 23.0.1, SVG Export Plug-In . SVG Version: 6.00 Build 0)  -->
<svg version="1.1" id="github_x5F_black" xmlns="http://www.w3.org/2000/svg" xmlns:xlink="http://www.w3.org/1999/xlink" x="0px"
	 y="0px" viewBox="0 0 520 512" style="enable-background:new 0 0 520 512;" xml:space="preserve">
<style type="text/css">
	.st0{fill:#ECEFF4;}
	.st1{fill:#292E38;}
</style>
<g>
	<ellipse class="st0" cx="260" cy="263.4" rx="251.4" ry="248.6"/>
	<path class="st1" d="M520,261.8C520,117.1,403.5,0,260,0S0,117.1,0,261.8c0,114.7,73.4,212.3,175.4,247.6
		c6.3-4.5,13.4-10.1,13.4-19.5c0-14.4-0.3-51.4-0.3-51.4s-11.3,1.9-27.4,1.9c-40.6,0-53.5-25.9-59.5-40.4
		c-8-18.9-18.3-27.8-29.2-34.9c-6.7-4.4-8.3-9.5-0.5-11c35.9-6.8,45.2,40.8,69.2,48.4c17.2,5.4,39.1,3.1,50-4
		c1.5-14.5,11.9-27.1,20.6-33.7c-61.1-5.8-97.2-27.1-116-61.3l-2-3.8l-4.7-10.9l-1.4-3.9c-5.9-17.3-8.5-37.1-8.5-59.3
		c0-39.3,12.3-54.2,28.7-75.1c-12.5-44.9,4.5-75.5,4.5-75.5s26.4-5.5,76.3,30.3c27.1-11.6,99.2-12.6,133.4-2.6
		c20.9-13.9,59.3-33.6,74.7-28.1c4.2,6.8,13.2,26.5,5.5,69.6c5.2,9.5,32.5,29.7,32.6,86.8c-0.5,21.1-2.6,38.8-6.7,53.8l-2.3,7.7
		c0,0-1.3,3.7-2.7,7.1l-1.6,3.8c-18.1,39.8-55.3,54.7-115.2,60.8c19.4,12.3,25,27.6,25,69.3s-0.6,47.2-0.5,56.8
		c0.1,8.5,6.8,14.5,12.9,19.1C446.3,474.5,520,376.8,520,261.8z"/>
</g>
</svg>
