<?xml version="1.0" encoding="utf-8"?>
<!-- Generator: Adobe Illustrator 23.0.1, SVG Export Plug-In . SVG Version: 6.00 Build 0)  -->
<svg version="1.1" id="Layer_1" xmlns="http://www.w3.org/2000/svg" xmlns:xlink="http://www.w3.org/1999/xlink" x="0px" y="0px"
	 viewBox="0 0 1920 1080" style="enable-background:new 0 0 1920 1080;" xml:space="preserve">
<style type="text/css">
	.st0{fill:#4C566A;stroke:#4C566A;stroke-width:5;stroke-miterlimit:10;}
	.st1{fill:url(#SVGID_1_);}
	.st2{fill:#2E3440;}
	.st3{fill:none;stroke:#2E3440;stroke-width:5;stroke-miterlimit:10;}
	.st4{fill:#3B4252;}
	.st5{fill:#4C566A;}
</style>
<path class="st0" d="M1116.8,935H843.3c-8.4,0-15.3-7.6-15.3-17V874c0-9.3,6.9-17,15.3-17h273.5c8.4,0,15.3,7.6,15.3,17v44.2
	C1132.1,927.4,1125.3,935,1116.8,935z"/>
<g>
	
		<image style="overflow:visible;opacity:0.75;enable-background:new    ;" width="1252" height="721" xlink:href="FFC0016E.png"  transform="matrix(1 0 0 1 357 158)">
	</image>
	<g>
		<g>
			<linearGradient id="SVGID_1_" gradientUnits="userSpaceOnUse" x1="522.75" y1="964.75" x2="1429.25" y2="58.25">
				<stop  offset="0" style="stop-color:#88C0D0"/>
				<stop  offset="1" style="stop-color:#5E81AC"/>
			</linearGradient>
			<rect x="390" y="191" class="st1" width="1172" height="641"/>
			<path class="st2" d="M1537,216v591H415V216H1537 M1587,166H365v691h1222V166L1587,166z"/>
		</g>
	</g>
</g>
<g>
	
		<image style="overflow:visible;opacity:0.75;enable-background:new    ;" width="762" height="132" xlink:href="FFC00172.png"  transform="matrix(1 0 0 1 602 917)">
	</image>
	<g>
		<path class="st2" d="M1339.5,1024.5h-727l0,0c0-53.6,43.4-97,97-97h533C1296.1,927.5,1339.5,970.9,1339.5,1024.5L1339.5,1024.5z"
			/>
		<path class="st3" d="M1339.5,1024.5h-727l0,0c0-53.6,43.4-97,97-97h533C1296.1,927.5,1339.5,970.9,1339.5,1024.5L1339.5,1024.5z"
			/>
	</g>
</g>
<g>
	<path class="st4" d="M503.2,674.5c-19.1,0-34.7-15.6-34.7-34.7V383.2c0-19.1,15.6-34.7,34.7-34.7h945.6c19.1,0,34.7,15.6,34.7,34.7
		v256.6c0,19.1-15.6,34.7-34.7,34.7L503.2,674.5L503.2,674.5z"/>
	<path class="st2" d="M1448.8,356c15,0,27.2,12.2,27.2,27.2v272.6c0,6.2-5,11.2-11.2,11.2H487.2c-6.2,0-11.2-5-11.2-11.2V367.2
		c0-6.2,5-11.2,11.2-11.2H1448.8 M1448.8,341H487.2c-14.5,0-26.2,11.7-26.2,26.2v288.6c0,14.5,11.7,26.2,26.2,26.2h977.6
		c14.5,0,26.2-11.7,26.2-26.2V383.2C1491,359.9,1472.1,341,1448.8,341L1448.8,341z"/>
</g>
<rect x="509" y="386" class="st5" width="33" height="33"/>
<rect x="509.5" y="433.9" class="st5" width="33.3" height="33.3"/>
<rect x="552.8" y="433.9" class="st5" width="33.3" height="33.3"/>
<rect x="597.2" y="433.9" class="st5" width="33.3" height="33.3"/>
<rect x="639.5" y="433.9" class="st5" width="33.3" height="33.3"/>
<rect x="685.9" y="433.9" class="st5" width="33.3" height="33.3"/>
<rect x="729.3" y="433.9" class="st5" width="33.3" height="33.3"/>
<rect x="774.6" y="433.9" class="st5" width="33.3" height="33.3"/>
<rect x="817" y="433.9" class="st5" width="33.3" height="33.3"/>
<rect x="860.3" y="433.9" class="st5" width="33.3" height="33.3"/>
<rect x="902.7" y="433.9" class="st5" width="33.3" height="33.3"/>
<rect x="946.1" y="433.9" class="st5" width="33.3" height="33.3"/>
<rect x="991.5" y="433.9" class="st5" width="33.3" height="33.3"/>
<rect x="1034.9" y="433.9" class="st5" width="33.3" height="33.3"/>
<rect x="575.8" y="475.9" class="st5" width="33.3" height="33.3"/>
<rect x="620.2" y="475.9" class="st5" width="33.3" height="33.3"/>
<rect x="662.5" y="475.9" class="st5" width="33.3" height="33.3"/>
<rect x="706.9" y="472.9" class="st5" width="33.3" height="33.3"/>
<rect x="752.3" y="475.9" class="st5" width="33.3" height="33.3"/>
<rect x="797.6" y="475.9" class="st5" width="33.3" height="33.3"/>
<rect x="840" y="475.9" class="st5" width="33.3" height="33.3"/>
<rect x="883.3" y="475.9" class="st5" width="33.3" height="33.3"/>
<rect x="925.7" y="475.9" class="st5" width="33.3" height="33.3"/>
<rect x="969.1" y="475.9" class="st5" width="33.3" height="33.3"/>
<rect x="1014.5" y="475.9" class="st5" width="33.3" height="33.3"/>
<rect x="1057.9" y="475.9" class="st5" width="33.3" height="33.3"/>
<rect x="587.8" y="517.9" class="st5" width="33.3" height="33.3"/>
<rect x="632.2" y="517.9" class="st5" width="33.3" height="33.3"/>
<rect x="674.5" y="517.9" class="st5" width="33.3" height="33.3"/>
<rect x="718.9" y="517.9" class="st5" width="33.3" height="33.3"/>
<rect x="764.3" y="517.9" class="st5" width="33.3" height="33.3"/>
<rect x="809.6" y="517.9" class="st5" width="33.3" height="33.3"/>
<rect x="852" y="517.9" class="st5" width="33.3" height="33.3"/>
<rect x="895.3" y="517.9" class="st5" width="33.3" height="33.3"/>
<rect x="937.7" y="517.9" class="st5" width="33.3" height="33.3"/>
<rect x="981.1" y="517.9" class="st5" width="33.3" height="33.3"/>
<rect x="1022.5" y="517.9" class="st5" width="33.3" height="33.3"/>
<rect x="605.8" y="561.9" class="st5" width="33.3" height="33.3"/>
<rect x="650.2" y="561.9" class="st5" width="33.3" height="33.3"/>
<rect x="692.5" y="561.9" class="st5" width="33.3" height="33.3"/>
<rect x="736.9" y="561.9" class="st5" width="33.3" height="33.3"/>
<rect x="782.3" y="561.9" class="st5" width="33.3" height="33.3"/>
<rect x="827.6" y="561.9" class="st5" width="33.3" height="33.3"/>
<rect x="870" y="561.9" class="st5" width="33.3" height="33.3"/>
<rect x="913.3" y="561.9" class="st5" width="33.3" height="33.3"/>
<rect x="955.7" y="561.9" class="st5" width="33.3" height="33.3"/>
<rect x="999.1" y="561.9" class="st5" width="33.3" height="33.3"/>
<rect x="1040.5" y="561.9" class="st5" width="142.5" height="33.3"/>
<rect x="1069.9" y="517.9" class="st5" width="113.1" height="33.3"/>
<rect x="1098.9" y="475.9" class="st5" width="84.1" height="33.3"/>
<rect x="1078.2" y="433.9" class="st5" width="104.8" height="33.3"/>
<rect x="509" y="476" class="st5" width="57" height="33"/>
<rect x="509" y="518" class="st5" width="71" height="33"/>
<rect x="510" y="562" class="st5" width="86" height="33"/>
<rect x="510" y="602" class="st5" width="33" height="33"/>
<rect x="553" y="602" class="st5" width="33" height="33"/>
<rect x="1064" y="602" class="st5" width="33" height="33"/>
<rect x="1107" y="602" class="st5" width="33" height="33"/>
<rect x="1151" y="602" class="st5" width="33" height="33"/>
<rect x="597" y="602" class="st5" width="43" height="33"/>
<rect x="1014" y="602" class="st5" width="43" height="33"/>
<rect x="651" y="602" class="st5" width="351" height="33"/>
<rect x="580" y="386" class="st5" width="33" height="33"/>
<rect x="623" y="386" class="st5" width="33" height="33"/>
<rect x="664" y="386" class="st5" width="33" height="33"/>
<rect x="707" y="386" class="st5" width="33" height="33"/>
<rect x="801" y="386" class="st5" width="33" height="33"/>
<rect x="844" y="386" class="st5" width="33" height="33"/>
<rect x="885" y="386" class="st5" width="33" height="33"/>
<rect x="928" y="386" class="st5" width="33" height="33"/>
<rect x="1023" y="386" class="st5" width="33" height="33"/>
<rect x="1066" y="386" class="st5" width="33" height="33"/>
<rect x="1107" y="386" class="st5" width="33" height="33"/>
<rect x="1150" y="386" class="st5" width="33" height="33"/>
<rect x="1289" y="385" class="st5" width="33" height="33"/>
<rect x="1330" y="385" class="st5" width="33" height="33"/>
<rect x="1373" y="385" class="st5" width="33" height="33"/>
<rect x="1288" y="433" class="st5" width="33" height="33"/>
<rect x="1329" y="433" class="st5" width="33" height="33"/>
<rect x="1372" y="433" class="st5" width="33" height="33"/>
<rect x="1287" y="473" class="st5" width="33" height="33"/>
<rect x="1328" y="473" class="st5" width="33" height="33"/>
<rect x="1371" y="473" class="st5" width="33" height="33"/>
<rect x="1328" y="561" class="st5" width="33" height="33"/>
<rect x="1286" y="601" class="st5" width="33" height="33"/>
<rect x="1327" y="601" class="st5" width="33" height="33"/>
<rect x="1370" y="601" class="st5" width="33" height="33"/>
<path class="st3" d="M1013.5,205.5"/>
<path class="st3" d="M990.5,358.5"/>
</svg>
