<?xml version="1.0" encoding="utf-8"?>
<!-- Generator: Adobe Illustrator 23.0.1, SVG Export Plug-In . SVG Version: 6.00 Build 0)  -->
<svg version="1.1" id="a3fdf556-7513-4367-833c-43bb1dab678b"
	 xmlns="http://www.w3.org/2000/svg" xmlns:xlink="http://www.w3.org/1999/xlink" x="0px" y="0px" viewBox="0 0 1087 646"
	 style="enable-background:new 0 0 1087 646;" xml:space="preserve">
<style type="text/css">
	.st1-0{opacity:0.1;fill:#4c566a;enable-background:new    ;}
	.st1-1{fill:#D8DEE9;}
	.st1-2{fill:#3B4252;}
	.st1-3{opacity:0.8;fill:#FA5959;enable-background:new    ;}
	.st1-4{opacity:0.8;fill:#FED253;enable-background:new    ;}
	.st1-5{opacity:0.8;fill:#8CCF4D;enable-background:new    ;}
	.st1-6{fill:#FFFFFF;}
	.st1-7{fill:#EDEDF4;}
	.st1-8{opacity:0.1;enable-background:new    ;}
	.st1-9{fill:#88C0D0;}
	.st1-10{fill:url(#SVGID_1_);}
	.st1-11{fill:#A1616A;}
	.st1-12{fill:#2F2E41;}
	.st1-13{fill:#303D5C;}
	.st1-14{fill:#E1E7EF;}
	.st1-15{fill:#67647E;}
	.st1-16{opacity:3.000000e-02;enable-background:new    ;}
</style>
<title>3d modeling</title>
<ellipse class="st1-0" cx="552.2" cy="594.3" rx="510" ry="51"/>
<path class="st1-1" d="M983.4,70l-0.2,498.3c-35,0,0,0-35.3,0.2H816.4l-0.4-0.2c-19.6-8-41.6-8-61.2,0l-0.3,0.1H622.6
	c-4.4-1.8-8.8-3.8-13-5.9c-22.3-11.2-48.5-11.2-70.7,0c-4.3,2.1-8.6,4.1-13,5.9H394l-0.3-0.1c-19.6-8-41.6-8-61.2,0l-0.4,0.2H200.5
	c-22.5-9.2-42.8-22.8-59.8-40.2V70H983.4z"/>
<path class="st1-2" d="M983.4,50.5V72H140.7V50.5c0-4.1,3.3-7.4,7.4-7.4l0,0H976C980.1,43.1,983.4,46.4,983.4,50.5L983.4,50.5z"/>
<circle class="st1-3" cx="154.1" cy="57.3" r="3.4"/>
<circle class="st1-4" cx="163.6" cy="57.3" r="3.4"/>
<circle class="st1-5" cx="173" cy="57.3" r="3.4"/>
<path class="st1-2" d="M251.2,72v497.5c0,0-45-0.2-110.5-1.2V72H251.2z"/>
<path class="st1-2" d="M984.7,72v498.3c-0.4,0.3-40.2-0.5-42,0.2h-68.5V72H984.7z"/>
<rect x="156" y="96.3" class="st1-6" width="80" height="10"/>
<rect x="156" y="119.3" class="st1-6" width="80" height="10"/>
<rect x="156" y="142.3" class="st1-6" width="80" height="10"/>
<rect x="156" y="165.3" class="st1-6" width="80" height="10"/>
<rect x="156" y="188.3" class="st1-6" width="80" height="10"/>
<rect x="156.2" y="256.3" class="st1-6" width="80" height="10"/>
<rect x="156.2" y="279.3" class="st1-6" width="80" height="10"/>
<rect x="156.2" y="302.3" class="st1-6" width="80" height="10"/>
<rect x="156.2" y="325.3" class="st1-6" width="80" height="10"/>
<rect x="156.2" y="348.3" class="st1-6" width="80" height="10"/>
<rect x="156.4" y="416.3" class="st1-6" width="80" height="10"/>
<rect x="156.4" y="439.3" class="st1-6" width="80" height="10"/>
<rect x="156.4" y="462.3" class="st1-6" width="80" height="10"/>
<rect x="156.4" y="485.3" class="st1-6" width="80" height="10"/>
<rect x="156.4" y="508.3" class="st1-6" width="80" height="10"/>
<rect x="880.2" y="76.3" class="st1-6" width="10" height="10"/>
<rect x="892.2" y="76.3" class="st1-6" width="10" height="10"/>
<rect x="904.2" y="76.3" class="st1-6" width="10" height="10"/>
<rect x="916.2" y="76.3" class="st1-6" width="10" height="10"/>
<rect x="928.2" y="76.3" class="st1-6" width="10" height="10"/>
<rect x="880.2" y="118.3" class="st1-6" width="10" height="10"/>
<rect x="892.2" y="118.3" class="st1-6" width="10" height="10"/>
<rect x="904.2" y="118.3" class="st1-6" width="10" height="10"/>
<rect x="916.2" y="118.3" class="st1-6" width="10" height="10"/>
<rect x="928.2" y="118.3" class="st1-6" width="10" height="10"/>
<rect x="880.2" y="160.3" class="st1-6" width="10" height="10"/>
<rect x="892.2" y="160.3" class="st1-6" width="10" height="10"/>
<rect x="904.2" y="160.3" class="st1-6" width="10" height="10"/>
<rect x="916.2" y="160.3" class="st1-6" width="10" height="10"/>
<rect x="928.2" y="160.3" class="st1-6" width="10" height="10"/>
<rect x="880.2" y="202.3" class="st1-6" width="10" height="10"/>
<rect x="892.2" y="202.3" class="st1-6" width="10" height="10"/>
<rect x="904.2" y="202.3" class="st1-6" width="10" height="10"/>
<rect x="916.2" y="202.3" class="st1-6" width="10" height="10"/>
<rect x="928.2" y="202.3" class="st1-6" width="10" height="10"/>
<rect x="880.2" y="244.3" class="st1-6" width="10" height="10"/>
<rect x="892.2" y="244.3" class="st1-6" width="10" height="10"/>
<rect x="904.2" y="244.3" class="st1-6" width="10" height="10"/>
<rect x="916.2" y="244.3" class="st1-6" width="10" height="10"/>
<rect x="928.2" y="244.3" class="st1-6" width="10" height="10"/>
<rect x="880.2" y="286.3" class="st1-6" width="10" height="10"/>
<rect x="892.2" y="286.3" class="st1-6" width="10" height="10"/>
<rect x="904.2" y="286.3" class="st1-6" width="10" height="10"/>
<rect x="916.2" y="286.3" class="st1-6" width="10" height="10"/>
<rect x="928.2" y="286.3" class="st1-6" width="10" height="10"/>
<rect x="880.2" y="328.3" class="st1-6" width="10" height="10"/>
<rect x="892.2" y="328.3" class="st1-6" width="10" height="10"/>
<rect x="904.2" y="328.3" class="st1-6" width="10" height="10"/>
<rect x="916.2" y="328.3" class="st1-6" width="10" height="10"/>
<rect x="928.2" y="328.3" class="st1-6" width="10" height="10"/>
<rect x="880.2" y="370.3" class="st1-6" width="10" height="10"/>
<rect x="892.2" y="370.3" class="st1-6" width="10" height="10"/>
<rect x="904.2" y="370.3" class="st1-6" width="10" height="10"/>
<rect x="916.2" y="370.3" class="st1-6" width="10" height="10"/>
<rect x="928.2" y="370.3" class="st1-6" width="10" height="10"/>
<rect x="880.2" y="412.3" class="st1-6" width="10" height="10"/>
<rect x="892.2" y="412.3" class="st1-6" width="10" height="10"/>
<rect x="904.2" y="412.3" class="st1-6" width="10" height="10"/>
<rect x="916.2" y="412.3" class="st1-6" width="10" height="10"/>
<rect x="928.2" y="412.3" class="st1-6" width="10" height="10"/>
<rect x="880.2" y="454.3" class="st1-6" width="10" height="10"/>
<rect x="892.2" y="454.3" class="st1-6" width="10" height="10"/>
<rect x="904.2" y="454.3" class="st1-6" width="10" height="10"/>
<rect x="916.2" y="454.3" class="st1-6" width="10" height="10"/>
<rect x="928.2" y="454.3" class="st1-6" width="10" height="10"/>
<rect x="880.2" y="496.3" class="st1-6" width="10" height="10"/>
<rect x="892.2" y="496.3" class="st1-6" width="10" height="10"/>
<rect x="904.2" y="496.3" class="st1-6" width="10" height="10"/>
<rect x="916.2" y="496.3" class="st1-6" width="10" height="10"/>
<rect x="928.2" y="496.3" class="st1-6" width="10" height="10"/>
<rect x="880.2" y="538.3" class="st1-6" width="10" height="10"/>
<rect x="892.2" y="538.3" class="st1-6" width="10" height="10"/>
<rect x="904.2" y="538.3" class="st1-6" width="10" height="10"/>
<rect x="916.2" y="538.3" class="st1-6" width="10" height="10"/>
<rect x="928.2" y="538.3" class="st1-6" width="10" height="10"/>
<path class="st1-7" d="M592.7,183.1l-31.6,4.7l-65.2,9.7L352.4,219l-0.5,0.1l-47,309.5l-0.2,1.2l535-233.6l1.4-0.6L592.7,183.1z
	 M808.9,282.4l-16.5,6.2l-24.3-11.8l16.3-5.5L808.9,282.4z M547.5,195.9l0.5-0.1l6,3.7l-4.1,0.7l-7.3,1.2l0,0l-5.6-3.9l8.5-1.3
	L547.5,195.9z M542.4,202.8l5.3,3.7l2.7,1.9l-2.7,0.5l-2,0.4l-5.3,1.1l-7.7-5.9l9.1-1.5l0,0L542.4,202.8z M550.8,201.5L550.8,201.5
	l5.2-0.8l8.1,5l-11.8,2.3l-2.6-1.8l-5.3-3.7L550.8,201.5z M573.7,197.8l10.2-1.6l7.6,4l-11,2.2l-4.1-2.3l-3.6-2.1L573.7,197.8z
	 M583.3,205.5L583.3,205.5l4.7,2.7l-1.1,0.2l-11.9,2.4l-7.4-4.5l12.5-2.5L583.3,205.5z M549.4,217.4l10.8-2.2l1.6,1.1l0,0l0.4,0.3
	l2.3,1.6l-11,2.4l-3.1-2.4l-0.2-0.2L549.4,217.4z M562.1,214.8l12.7-2.5l3,1.8l0.6,0.3l0.9,0.5l-12.8,2.8l-2.1-1.5l0,0l-0.4-0.3
	L562.1,214.8z M521.4,291.5l-24.9,6.6l-7.2-12.8l23.5-5.7L521.4,291.5z M512,278.4l-23.4,5.7l-6-10.6l21.6-5.1l0.5-0.1l5.7,8v0.1
	L512,278.4z M587.6,234.1l2.3,1.6l-5.7,1.2l-6.7,1.4l-0.7,0.2l-1.8-1.4l-2.1-1.6l-9-7l11.8-2.7l8.4,5.8l0,0L587.6,234.1z
	 M546.2,232.5l1.5-0.4l14.3-3.3l8.9,6.9l2.1,1.6l1.9,1.5l-16.9,3.6l-2.4-2L554,239l-7-5.9L546.2,232.5z M576.4,240l1.5,1.2l0.5,0.4
	l7.7,5.9l-17.3,4.1l-9.5-8L576.4,240z M556.4,242.9l-5.5,1.2h-0.1l-28.7,6.2l-1.2,0.3l-8.8-10.4l9.7-2.2l22.6-5.1L556.4,242.9z
	 M522.2,251.7l27.6-6l0,0l2.4-0.5l5.6-1.2l9.5,8l-6.3,1.5l-2.3,0.5l-28.8,6.8l-7.5-8.9l-0.2-0.3V251.7z M537.6,272.2l-14.7,3.6
	l-9.4,2.3l-7.3-10.2l16.4-3.9l6.7-1.6L537.6,272.2z M522.9,277.2l15.7-3.8l9.4,11.1l-24.7,6.5l-0.4,0.1l-8.5-11.9L522.9,277.2z
	 M530.8,262.1l29-6.9l2.3-0.5l6.5-1.5l10.7,9l-4.7,1.1l-9,2.2l0,0l-26.5,6.4L530.8,262.1z M570.2,252.8l17.3-4.1l3.7,2.8l7.6,5.9
	l-7.6,1.9l-10.3,2.5L570.2,252.8z M591.2,249.8l-1.9-1.5l1.9-0.5l12-2.8l12.2,8.4l-14.8,3.6L591.2,249.8z M591.2,246.4l-3.3,0.8
	l-8.3-6.4l-1.5-1.1l3.7-0.8l9.4-2h0.2l10.3,7.1L591.2,246.4z M562.4,227.4l-7.4-5.7l11.1-2.4l7.9,5.5L562.4,227.4z M560.7,227.8
	l-12.9,3l-2,0.5l-0.9,0.2l-7.1-6l8-1.7l2-0.4l5.5-1.2L560.7,227.8z M543.2,231.8l-21.4,4.9l-10.6,2.4l-5.7-6.8l16.1-3.5l14.4-3.1
	L543.2,231.8z M509.7,239.4l-12.2,2.8l-8.5,1.9l-5-7.1l13.3-2.9l6.7-1.5L509.7,239.4z M497.6,243.6l13.1-3l8.7,10.3l-21.5,4.6
	l-0.6,0.1l-7.5-10.4L497.6,243.6z M520.4,252.1l1.8,2.1l6,7l-5.7,1.4l-17.2,4l-7-9.8L520.4,252.1z M540,273l24.6-6l0,0l10.7-2.6
	l5.2-1.3l10.7,9l0.8,0.7l-0.8,0.2l-41.8,11L540,273z M591.2,270.4l-9-7.6l9-2.2l9-2.2l11.8,9.2l-18.4,4.9L591.2,270.4z M601.9,258
	l14.9-3.6l12.5,8.6l-15.6,4.1L601.9,258z M618.7,254l17.2-4.2l13.1,8.1l-17.8,4.8L618.7,254z M617.1,252.9l-12.2-8.4l16-3.8
	l13.2,8.1L617.1,252.9z M603.4,243.4l-10.2-7.1l15.3-3.3l10.8,6.6L603.4,243.4z M591.7,235.3l-0.5-0.3l-13.8-9.6l13.7-3.1l0.2,0.1
	L607,232L591.7,235.3z M575.8,224.3l-7.9-5.5l13-2.8l8.4,5.2L575.8,224.3z M548.4,218.3L548.4,218.3l3.3,2.6l-4.1,0.9l-2,0.4l-9.3,2
	l-4.1-3.5l5-1l0,0l1.8-0.4h0.1l6.5-1.3l2-0.4l0,0l0.5,0.4l0,0L548.4,218.3z M521.4,222.9l9.1-1.8l4.1,3.5l-13.1,2.8l-17.1,3.8
	L501,227L521.4,222.9z M502.9,231.4l-5.8,1.2l-14.1,3l-3.2-4.5l17.2-3.4l2.4-0.5L502.9,231.4z M481.6,236l-18,3.9l-2.8-4.9l17.5-3.5
	L481.6,236z M482.5,237.2l5.1,7.1l-19,4.3l-4.3-7.6L482.5,237.2z M488.5,245.5l7.4,10.4l-20.7,4.5l-5.9-10.5L488.5,245.5z
	 M496.8,257.1l1.3,1.8l0,0l5.7,8l-0.5,0.1l-21.4,5.1l-5.9-10.5L496.8,257.1z M487.2,284.3l-25.6,6.3l-4.7-11.1l24.3-5.8L487.2,284.3
	z M487.9,285.6l7.2,12.8l-27.2,7.3l-5.8-13.7L487.9,285.6z M495.8,299.6l8.6,15.2l-29.1,8.3l-6.9-16.2L495.8,299.6z M497.2,299.2
	l25-6.6l10.2,14.2l-26.6,7.6L497.2,299.2z M523.7,292.2l25.3-6.6l11.3,13.3l-26.4,7.5L523.7,292.2z M550.5,285.2L550.5,285.2
	l40.8-10.8l2.1-0.5l13.8,11.7l-45.4,12.9L550.5,285.2z M594.9,273.5l18.5-4.8l14.3,11.1l-19,5.4L594.9,273.5z M615.1,268.1l15.7-4.1
	l15.1,10.5l-16.6,4.7L615.1,268.1z M632.6,263.6l18-4.7l16,9.8l-18.9,5.4L632.6,263.6z M652.4,258.4l16.1-4.2l16.4,9.4l-16.5,4.7
	L652.4,258.4z M650.8,257.4l-13.1-8l15.7-3.8l13.4,7.6L650.8,257.4z M636.1,248.3l-13.2-8.1l15-3.5l13.8,7.8L636.1,248.3z
	 M621.3,239.2l-10.8-6.6l14.7-3.2l11,6.3L621.3,239.2z M608.8,231.6l-15.9-9.8l13.5-3.1l17,9.7L608.8,231.6z M591.3,220.8
	L591.3,220.8l-8.4-5.1l8.3-1.8l4.8-1l8.6,4.9L591.3,220.8z M591.2,212.4l-4.5,1h-0.1l-5.5,1.2l-0.6-0.4l-0.6-0.4l-3.2-1.9l11.5-2.3
	l1.5-0.3l4.3,2.5L591.2,212.4z M573.1,211.2l-12.5,2.5l-6.7-4.7l11.9-2.4L573.1,211.2z M558.7,214.1l-10.7,2.1l-0.3-0.2l-2-1.5
	l-3.9-3l3.9-0.8l2-0.4l4.2-0.8L558.7,214.1z M545.7,216.2l0.5,0.4l-0.5,0.1l-14.8,3l-5.8-4.9l14.9-3L545.7,216.2z M529.2,220l-8,1.6
	l0,0l-21.2,4.2l-3.2-3.7l-1.3-1.5l1.2-0.2l19-3.8l0,0l7.7-1.5L529.2,220z M496.9,224.3l1.5,1.8l-1.5,0.3l-18,3.6l-3.8-5.3l18.9-3.8
	L496.9,224.3z M477.5,230.3l-17.3,3.5l-3.1-5.4l16.6-3.3L477.5,230.3z M458.7,234.1l-19.4,3.9l-2.4-5.6l18.7-3.7L458.7,234.1z
	 M459.4,235.3l2.8,4.9l-20.1,4.3l-2.3-5.3L459.4,235.3z M462.9,241.5l4.3,7.6l-21.1,4.8l-3.4-8L462.9,241.5z M467.9,250.3l5.9,10.5
	l-22.8,4.9l-4.4-10.5L467.9,250.3z M474.5,262l5.9,10.5l-24.1,5.7l-4.8-11.3L474.5,262z M460.2,291l-25.8,6.3l-3.3-11.6l24.4-5.8
	L460.2,291z M460.8,292.3l5.8,13.7l-27.6,7.3l-4.2-14.7L460.8,292.3z M467.1,307.3l6.9,16.2l-29.7,8.5l-4.9-17.4L467.1,307.3z
	 M474.5,324.8l8,19l-32.1,9.9l-5.8-20.3L474.5,324.8z M475.9,324.4l29.3-8.3l10.1,17.8l-31.3,9.5L475.9,324.4z M506.4,315.7
	l26.8-7.6l11.9,16.6l-28.7,8.8L506.4,315.7z M534.7,307.7l26.5-7.5l13.3,15.6l-27.9,8.5L534.7,307.7z M562.7,299.7l45.7-13
	l16.3,13.8l-48.8,14.9L562.7,299.7z M610,286.2l19.1-5.4l17,13.1l-19.8,6L610,286.2z M630.7,280.3l16.7-4.7l18,12.5l-17.8,5.4
	L630.7,280.3z M649.2,275.1l19-5.4l19,11.7l-20.1,6.1L649.2,275.1z M669.9,269.2l16.6-4.7l19.6,11.2l-17.2,5.2L669.9,269.2z
	 M688.4,263.9l15.6-4.4l20.2,10.6L708,275L688.4,263.9z M686.8,262.9l-16.3-9.3l15-4l16.8,8.9L686.8,262.9z M668.7,252.6l-13.3-7.6
	l14.6-3.5l13.7,7.2L668.7,252.6z M653.6,244l-13.8-7.8l13.8-3.3l14.4,7.6L653.6,244z M638.1,235.2l-10.9-6.2l13.4-2.9l11.2,5.9
	L638.1,235.2z M625.4,228l-17-9.7l12.2-2.8l18.2,9.6L625.4,228z M606.7,217.3l-8.6-4.9l11.8-2.5l8.9,4.7L606.7,217.3z M596.3,211.3
	l-4.3-2.5l11.7-2.3l4.3,2.3L596.3,211.3z M590.1,207.8l-7.8-4.5l11.1-2.2l8.2,4.3L590.1,207.8z M578.4,202.8l-12.4,2.5l-8-4.9
	l12.6-2L578.4,202.8z M538.6,210.7l-14.8,2.9l-7.8-6.5l14.8-2.4L538.6,210.7z M522.1,214l-7.6,1.5l-17.8,3.5l-2.2,0.4l-6.6-7.8
	l8.5-1.4l10.5-1.7l7.3-1.2L522.1,214z M493,219.8l-18.7,3.7l-6.2-8.6l18.3-3L493,219.8z M472.8,223.8l-16.5,3.3l-5.3-9.4l15.6-2.5
	L472.8,223.8z M454.9,227.3l-18.5,3.7l-4.4-10.4l17.5-2.8L454.9,227.3z M435,231.3l-18.2,3.6l-3.2-11.3l17-2.8L435,231.3z
	 M435.5,232.6l2.4,5.6l-19.1,3.8l-1.6-5.8L435.5,232.6z M438.5,239.5l2.3,5.4l-19.9,4.3l-1.6-5.8L438.5,239.5z M441.3,246.1l3.4,8.1
	l-21.1,4.8l-2.4-8.5L441.3,246.1z M445.2,255.5l4.4,10.5l-22.7,4.9l-3-10.6L445.2,255.5z M450.2,267.3l4.8,11.3l-24.2,5.7l-3.4-12.1
	L450.2,267.3z M433.1,297.5l-28.2,6.8l-1.6-12.2l26.5-6.3L433.1,297.5z M433.5,298.9l4.2,14.8l-30.6,8l-2-15.9L433.5,298.9z
	 M438,314.9l4.9,17.4l-33.3,9.5l-2.4-18.8L438,314.9z M443.3,333.6l5.8,20.4l-36.4,11.1l-2.8-21.9L443.3,333.6z M449.4,355.3l7,24.7
	l-40.1,13.5l-3.5-27L449.4,355.3z M450.8,354.9l32.3-9.9l9.6,22.8l-35,11.7L450.8,354.9z M484.4,344.6l31.5-9.6l11.9,21L494,367.4
	L484.4,344.6z M517.2,334.6l28.8-8.8l13.9,19.4L529,355.6L517.2,334.6z M547.4,325.5l28-8.5l15.3,18l-29.4,9.9L547.4,325.5z
	 M576.9,316.5l49.1-15l18.3,15.5l-52.1,17.5L576.9,316.5z M627.5,301l19.8-6l18.9,14.6l-20.4,6.8L627.5,301z M649,294.5l17.9-5.5
	l19.8,13.7l-18.9,6.3L649,294.5z M668.6,288.5l20.2-6.2l20.7,12.8l-21.2,7.1L668.6,288.5z M690.6,281.8l17.3-5.3l21.1,12l-17.7,6
	L690.6,281.8z M709.7,276l16.3-5l21.5,11.3l-16.7,5.6L709.7,276z M727.8,270.4l14.8-4.5l22,10.7l-15.3,5.1L727.8,270.4z
	 M726.1,269.5L706,258.9l14-4l20.8,10.1L726.1,269.5z M704.1,258l-16.8-8.9l13.4-3.5L718,254L704.1,258z M685.6,248.2L672,241
	l12.9-3.1l14,6.8L685.6,248.2z M670.1,240.1l-14.4-7.6l12-2.9l15.1,7.3L670.1,240.1z M653.9,231.5l-11.1-5.9l11.6-2.5l11.5,5.6
	L653.9,231.5z M640.9,224.6l-18.2-9.6l10.3-2.3l19.4,9.4L640.9,224.6z M620.8,214.1l-8.9-4.7l9.8-2.1l9.2,4.5L620.8,214.1z
	 M610,208.4l-4.3-2.3l9.7-1.9l4.3,2.1L610,208.4z M603.8,205.1l-8.2-4.3l9-1.8l8.7,4.2L603.8,205.1z M593.7,199.7l-7.5-4l9-1.5
	l7.5,3.6L593.7,199.7z M584.1,194.7l-6.4-3.4l8.5-1.3l6.7,3.3L584.1,194.7z M581.9,195.1l-9.7,1.5l0,0l-1.3,0.2l-6.2-3.5l2.8-0.4
	l7.9-1.2L581.9,195.1z M568.7,197.2l-12.5,2l-6-3.7l12.2-1.9L568.7,197.2z M540.8,201.7l-9.5,1.5l-5.2-4l9.1-1.4L540.8,201.7z
	 M529.4,203.5l-14.7,2.4l-5-4.2l14.5-2.2L529.4,203.5z M512.9,206.2l-7.2,1.2l-9.3,1.5l-9.5,1.5l-3.9-4.6l13.2-2l4.7-0.7l6.9-1
	L512.9,206.2z M485.3,210.6l-18.1,3l-3.5-4.9l17.7-2.7L485.3,210.6z M465.6,213.8l-15.4,2.5l-2.9-5.1l14.8-2.3L465.6,213.8z
	 M448.8,216.5l-17.4,2.8l-2.3-5.4l16.7-2.5L448.8,216.5z M430,219.5l-16.8,2.7l-1.6-5.6l16.1-2.5L430,219.5z M411.8,222.5l-17.1,2.8
	l-0.8-5.9l16.3-2.5L411.8,222.5z M412.2,223.9l3.2,11.3l-19,3.8l-1.6-12.3L412.2,223.9z M415.8,236.5l1.6,5.8l-20,4l-0.8-5.9
	L415.8,236.5z M417.8,243.6l1.6,5.8l-21.1,4.5l-0.8-6.3L417.8,243.6z M419.8,250.8l2.4,8.5l-22.5,5.1l-1.2-9.1L419.8,250.8z
	 M422.6,260.6l3,10.6l-24.4,5.3l-1.4-10.6L422.6,260.6z M426,272.5l3.5,12.1l-26.3,6.2l-1.7-13L426,272.5z M403.5,304.7l-30.3,7.3
	l0.2-12.8l28.5-6.7L403.5,304.7z M403.6,306.1l2,15.9l-32.8,8.6l0.3-17.2L403.6,306.1z M405.9,323.4l2.4,18.8l-35.8,10.2l0.4-20.3
	L405.9,323.4z M408.4,343.6l2.8,22l-39.3,12l0.4-23.7L408.4,343.6z M411.4,366.9l3.5,27l-43.5,14.6l0.5-29.6L411.4,366.9z
	 M415.1,395.3l4.4,34.6l-48.8,18.5l0.7-38.4L415.1,395.3z M416.4,394.9l40.4-13.5l8.8,31.1l-44.7,16.9L416.4,394.9z M458.1,380.9
	l35.1-11.8l12,28.3L466.9,412L458.1,380.9z M494.6,368.6l33.9-11.3l14.6,25.8L506.5,397L494.6,368.6z M529.8,356.8l31-10.4
	l16.9,23.6l-33.3,12.7L529.8,356.8z M562.2,345.9l29.5-9.9l18.4,21.7L579,369.5L562.2,345.9z M593.2,335.5l52.4-17.6l21.5,18.1
	l-55.6,21.1L593.2,335.5z M647.1,317.4l20.4-6.8l22,17l-21,7.9L647.1,317.4z M669.1,310.1l19-6.4l22.8,15.8L691,327L669.1,310.1z
	 M689.8,303.1L711,296l23.6,14.5l-22.1,8.4L689.8,303.1z M712.8,295.4l17.8-6l23.8,13.6l-18.1,6.9L712.8,295.4z M732.3,288.9
	l16.8-5.6l24.1,12.7l-17.1,6.5L732.3,288.9z M750.9,282.6l15.4-5.2l24.4,11.9l-15.8,6L750.9,282.6z M782.7,270.5l-16.3,5.5
	l-21.9-10.6l16-4.9L782.7,270.5z M758.6,259.6l-15.9,4.8l-20.8-10.1l15.4-4.4L758.6,259.6z M735.3,249.1l-15.3,4.4l-17.3-8.4l15-4
	L735.3,249.1z M715.7,240.3l-14.9,3.9l-13.9-6.8l14.7-3.5L715.7,240.3z M699.6,232.9l-14.6,3.5l-15.1-7.3l14-3.3L699.6,232.9z
	 M681.8,224.9l-13.8,3.3l-11.4-5.6l13.7-3L681.8,224.9z M668.1,218.8l-13.6,2.9l-19.5-9.5l12.4-2.8L668.1,218.8z M645.4,208.4
	l-12.3,2.8l-9.2-4.5l11.2-2.4l-0.2-0.7L645.4,208.4z M633.9,203.2l-12,2.6l-4.2-2.1l10.3-2l-0.3-1.3L633.9,203.2z M627.6,200.4
	l-12,2.4l-8.7-4.2l11.6-2.3L627.6,200.4z M616.3,195.2l-11.4,2.3l-7.4-3.6l11.7-1.9L616.3,195.2z M606.9,191l-11.6,1.9l-6.7-3.3
	l11.4-1.7L606.9,191z M592.5,184.5l5.3,2.4l-11.3,1.8l-5-2.4L592.5,184.5z M579.1,186.5l5,2.5l-8.4,1.3l-4.8-2.5L579.1,186.5z
	 M562.6,189L562.6,189l6-0.9l4.8,2.5l-7.3,1.1l-3.3,0.5l-4.5-2.6L562.6,189z M556,190l4.5,2.6l-12.1,1.9l-4.3-2.7L556,190z
	 M542,192.1l4.3,2.7l-10.8,1.6l-4-2.8L542,192.1z M529.6,193.9l4,2.8l-9,1.4l-3.7-2.8L529.6,193.9z M519.1,195.5l3.7,2.9l-14.4,2.2
	l-3.6-2.9L519.1,195.5z M496.1,198.9h0.3l6.6-1l3.5,2.9l-6.8,1l-3.5,0.5l-14.2,2.2l-2.7-3.1L496.1,198.9z M477.7,201.6l2.7,3.1
	l-17.5,2.7l-2.3-3.2L477.7,201.6z M458.9,204.4l2.3,3.2l-14.6,2.2l-1.9-3.4L458.9,204.4z M443.3,206.8l1.9,3.4l-16.5,2.5l-1.5-3.5
	L443.3,206.8z M425.7,209.4l1.5,3.5l-16,2.4l-1-3.6L425.7,209.4z M408.8,211.9l1,3.6l-16.1,2.5l-0.5-3.7L408.8,211.9z M374.8,217
	l17-2.5l0.5,3.7l-17.6,2.7L374.8,217z M374.8,222.3l17.8-2.6l0.8,6l-18.6,3L374.8,222.3z M374.6,229.9l18.9-3l1.6,12.3l-20.6,4.2
	L374.6,229.9z M374.4,244.8l20.8-4.1l0.8,5.9l-21.8,4.3L374.4,244.8z M374.3,252.3l22-4.4l0.8,6.3l-22.9,4.9L374.3,252.3z
	 M374.2,260.6l23.1-5l1.2,9.1l-24.4,5.6L374.2,260.6z M374,271.7l24.6-5.6l1.4,10.6l-26.2,5.7L374,271.7z M400.1,278.1l1.7,13
	l-28.3,6.7l0.3-14L400.1,278.1z M353.2,220.3l20.3-3l-0.1,3.9l-20.9,3.2L353.2,220.3z M352.4,225.7l21-3.2l-0.1,6.3l-21.9,3.5
	L352.4,225.7z M351.2,233.7l22.1-3.6l-0.3,13.5l-24.1,4.8L351.2,233.7z M348.7,249.9L373,245l-0.1,6.1l-25.2,5L348.7,249.9z
	 M347.5,257.6l25.4-5.1l-0.1,6.9l-26.4,5.7L347.5,257.6z M346.1,266.6l26.6-5.7l-0.2,9.7l-28,6.4L346.1,266.6z M344.3,278.5
	l28.2-6.4l-0.2,10.7l-29.6,6.4L344.3,278.5z M342.5,290.6l29.8-6.5l-0.3,14l-31.9,7.5L342.5,290.6z M340,307.2l32.1-7.6l-0.2,12.8
	l-33.9,8.2L340,307.2z M337.7,322.1l34.1-8.3l-0.4,17.2l-36.6,9.6L337.7,322.1z M334.7,342.2l36.8-9.7l-0.4,20.3l-39.7,11.3
	L334.7,342.2z M331.2,365.6l40-11.4l-0.4,23.7l-43.4,13.2L331.2,365.6z M327,392.6l43.6-13.3l-0.5,29.6l-48,16.1L327,392.6z
	 M368.4,500.5l-61.9,27l8.6-56.6l54.2-20.5L368.4,500.5z M315.3,469.4l6.5-42.7l48.2-16.2l-0.6,38.5L315.3,469.4z M369.8,499.8
	l0.9-50l49-18.5l5.7,44.3L369.8,499.8z M426.7,475l-5.7-44.2l44.9-17L477,453L426.7,475z M478.4,452.5l-11.1-39.2l38.5-14.6
	l14.9,35.3L478.4,452.5z M521.9,433.5L507,398.3l36.7-13.9l18,31.7L521.9,433.5z M562.9,415.5L545,383.9l33.5-12.7l20.5,28.6
	L562.9,415.5z M600.3,399.2l-20.4-28.6l31.2-11.8l22.1,26L600.3,399.2z M634.4,384.3l-22-26l55.9-21.2l25.3,21.3L634.4,384.3z
	 M695,357.9l-25.2-21.2l21-8l25.7,19.9L695,357.9z M717.8,347.9l-25.6-19.8l20-7.6l26.4,18.3L717.8,347.9z M740.2,338.1l-26.3-18.2
	l22.2-8.4l27,16.6L740.2,338.1z M764.7,327.4l-27-16.6l18.2-6.9l27.1,15.5L764.7,327.4z M784.5,318.7l-27-15.4l17.2-6.5l27.2,14.3
	L784.5,318.7z M803.5,310.4l-27.1-14.3l15.9-6l27.3,13.3L803.5,310.4z M821.3,302.7l-27.2-13.2l16.5-6.3l27.1,12.3L821.3,302.7z"/>
<polygon class="st1-7" points="591.2,211.9 591.2,276.1 522.5,291.6 498.1,260.6 496,198.5 495.9,196.4 558,185.3 "/>
<polygon class="st1-8" points="591.2,212.3 591.2,276.1 523.2,291.5 522.5,291.6 498.1,260.6 496,198.5 521.4,221.8 "/>
<polygon class="st1-8" points="591.2,212.5 591.2,276.1 523.2,291.5 521.4,221.8 590.1,213 "/>
<polygon class="st1-9" points="553.5,206.2 550.1,200.3 546.7,194.4 543.3,200.3 539.9,206.2 545.7,206.2 545.7,233.3 547.7,233.3 
	547.7,206.2 "/>
<polygon class="st1-9" points="574.1,262.4 570.7,256.5 568.4,260.6 550.9,244 549.5,245.5 567.3,262.4 567.3,262.4 563.9,268.3 
	570.7,268.3 577.5,268.3 "/>
<polygon class="st1-9" points="582.1,230.9 575.8,228.6 576.8,234.7 554,238.8 554.4,240.8 577.2,236.7 578.1,241.9 583.3,237.6 
	588.5,233.3 "/>
<linearGradient id="SVGID_1_" gradientUnits="userSpaceOnUse" x1="1755.343" y1="1173.6698" x2="1755.343" y2="716.2169" gradientTransform="matrix(1 0 0 1 -1518.79 -559.37)">
	<stop  offset="0" style="stop-color:#808080;stop-opacity:0.25"/>
	<stop  offset="0.54" style="stop-color:#808080;stop-opacity:0.12"/>
	<stop  offset="1" style="stop-color:#808080;stop-opacity:0.1"/>
</linearGradient>
<path class="st1-10" d="M310.7,296.9c-1.7-11.3-11.9-37.5-11.9-37.5l0,0c-0.2-0.8-0.4-1.6-0.6-2.3c-7.3-24.9-17.3-27.1-17.3-27.1
	l-35.9-7.7c0.3,0.2,0.5,0.4,0.7,0.7c-0.2,0-0.4,0-0.6,0.1c-1.6-1.9-2.7-4.3-3.1-6.8c-0.1-0.4-0.1-0.8-0.2-1.1
	c10-9.7,10.2-25.8,0.4-35.7c-0.8-0.8-1.6-1.6-2.5-2.3c-0.4-0.3-0.8-0.6-1.1-0.9c1.7-1.8,1.8-4.3,0.5-6.8c-2.8-5.9-9-9.6-15.3-11.4
	c-4.8-1.4-10.1-1.8-14.9-0.3c-2.7,1-5.3,2.2-7.8,3.6c-4.8,2.4-10,4.3-13.6,8.2c-0.9,0.8-1.4,2-1.4,3.3c0.3,0.9,0.8,1.7,1.4,2.4
	c1,1.8,0.8,4,0.1,6s-1.7,3.8-2.2,5.8s-0.3,4.4,1.2,5.8c0.7,0.6,1.5,1.1,2.3,1.6c0.8,0.7,1.5,1.5,2.1,2.4l4.3,5.8
	c2,2.6,3.8,5.3,5.3,8.1c0.9,2.2,2,4.2,3.3,6.2c0.4,0.5,0.9,1,1.4,1.5l-0.4-0.2c1.3,1.2,3,1.9,4.8,1.8h0.2c0.3,0,0.6-0.1,0.9-0.4v0.8
	c0.1,2.8,0.1,5.7-0.1,8.5l-0.3-0.2c-1-0.5-2.2-0.4-3.1,0.3L174,255.6c0,0-7.2,9.9-6.2,26.8l-5.8,25.5c0,0-7.3,21.6-1.7,37.1
	s8.8,24.3,8.8,24.3s2.2,17.5,5.6,19s4.8,2.2,4.8,2.2l0.7,4.2l0,0c0,0,0.2,0.4,0.6,1.1c2.4,4.2,11.5,19.2,16.7,17.6
	c0.7,4.1,0.9,8.2,0.9,12.3l5.2,34.8c0,0,3.6,9.5,3.4,14.5s4.2,12,4.2,12c-2.7,5-3.5,10.7-2.2,16.2c2.1,9.3,4.8,52.1,4.8,52.1
	l3.9,10.4l-0.1,12.1c-0.3,2-1.2,3.8-2.4,5.4c-2.5,2.7-2.3,5.9-8.4,9.6s-9.9,5.1-9.9,10.1c0,0.7-0.1,1.3-0.2,2
	c-0.6,3.6-1.6,5.6,9.5,6.6c7.9,0.6,15.8-2,21.8-7.3c0,0,1.9-3.5,11-4.9c0,0,3.1-0.2,3.3-2.9c0.1-0.9,0-2.8,0-4.7
	c-0.1-3.8-0.5-8.2-1-8.4s-1.7-4.1-2-5.5h2.5c0,0,2.4-17.5,0-28.9s-0.2-19.4-0.2-19.4l-0.5-30c0,0-3.1-3.3-0.7-9.2s0-34.7,0-34.7
	s0.9-10.4,3.5-12.8s0.1-15.2,0-15.8l4.6,15.3c0,0,2,30.5,6.3,36l1.2,13.8c0,0,8.7,12.7,7,19.5s1.8,31.5,1.8,31.5v25.3
	c0,0-3.9,10.1,1.6,13.8l2.4-0.1c-0.8,0.7-1.4,1.8-2.3,2.7c-1,1.1-1.6,5.2-2,8.7c-0.3,3-0.4,5.5-0.4,5.5c1.5,2.3,4,3.7,6.7,4
	c4.4,0.3,18.7,11.3,18.7,11.3s14.2,0,17.9-0.7h0.2c1.2-0.4,2.2-1.2,2.8-2.3c0.7-1.3,1-2.7,0.7-4.2c-0.5-2.2-2.2-4.6-6-6.6
	c-9.5-5-11-9.8-11-9.8l-6.2-9.4h0.9c0,0-0.6-9.9,6.2-21.1l-0.4-49.2c0,0,2.8-16.9-2-26c0,0-0.4-9.7,2.8-12.7s-4.3-33.1-4.3-33.1
	s-1.5-16.2-3.4-30.9l0,0c7.5,7.1,15.4-18.6,16.7-23.1h0.2c0,0,0-0.1-0.1-0.3l0.1-0.3l0,0c0,0-1.7-6-0.5-4.7s4.2-3.3,4.2-3.3
	s-0.4-24.6,4.8-37S310.7,296.9,310.7,296.9z M288.3,312.6L288.3,312.6c0.8,14.9-0.1,47-0.1,47s-1,4.1-2.1,8.9l-0.8-30.5l0,0
	l-0.8-28.7L288.3,312.6z M192.3,302.3c0,0,3.8,47.4,0,54.3c-1.1,1.9-2,5.4-2.7,9.4c-1.3-3.3-3.9-11-3-15.1
	c1.2-5.3-2.5-19.2-2.5-19.5s-0.3-7.7,2.4-13.4s0.9-8.1,0.9-8.1S189.6,300.5,192.3,302.3L192.3,302.3z"/>
<path class="st1-11" d="M201.5,409c-3.3,14.5-16.4-7.4-19.4-12.7l-0.6-1.1l1.4-6.7l7.5-3.1c1.2,0.6,2.3,1.4,3.4,2.2
	C197.9,390.9,204,397.8,201.5,409z"/>
<path class="st1-11" d="M303.4,385.3c0,0,0,0.1-0.1,0.3l-0.1,0.4c-1.3,4.5-9,30.1-16.3,23c-8.1-7.8-4.2-25.6-4.2-25.6l0,0l17-1.7
	l3.4,3.5l0,0L303.4,385.3z"/>
<path class="st1-12" d="M293.6,510.9l0.4,48.7c-6.7,11.1-6.1,20.9-6.1,20.9l-22,0.9c-5.4-3.6-1.5-13.7-1.5-13.7v-25.1
	c0,0-3.4-24.5-1.8-31.3s-6.9-19.4-6.9-19.4l-1.2-13.7c-4.2-5.5-6.1-35.7-6.1-35.7l-4.5-15.2c0.1,0.7,2.4,13.4,0,15.7
	s-3.4,12.7-3.4,12.7s2.4,28.7,0,34.5s0.6,9.1,0.6,9.1l0.4,29.8c0,0-2.1,8,0.2,19.3s0,28.7,0,28.7H218l0.1-12.2l-3.8-10.3
	c0,0-2.6-42.5-4.7-51.7c-1.2-5.5-0.5-11.2,2.2-16.1c0,0-4.4-7-4.2-11.9s-3.3-14.3-3.3-14.3l-5.1-34.6c0.1-6.7-0.7-13.3-2.5-19.7
	c-3-9.8-7.3-22.8-7.3-22.8l4.9,0.4l25,2.2c0,0,60.6-4.1,63.4-0.7c0.6,1.1,1,2.3,1.1,3.5c2.7,12.2,6.3,50.6,6.3,50.6
	s7.3,29.9,4.2,32.8s-2.8,12.6-2.8,12.6C296.3,494.1,293.6,510.9,293.6,510.9z"/>
<path class="st1-13" d="M242.3,595.6c-0.2,2.7-3.2,2.9-3.2,2.9c-8.9,1.4-10.8,4.8-10.8,4.8c-5.8,5.2-13.5,7.9-21.4,7.2
	c-10.9-1-9.8-3-9.3-6.6c0.1-0.7,0.2-1.3,0.2-2c0-4.9,3.8-6.3,9.7-10s5.7-6.8,8.2-9.5s2.7-8,2.7-8c2.8-4.8,9.9,0.7,9.9,0.7
	c0.3,1.7,10.8,1.5,10.8,1.5s1.4,5.6,2.1,5.9c0.5,0.2,0.8,4.6,1,8.4C242.4,592.8,242.4,594.6,242.3,595.6z"/>
<path class="st1-8" d="M242.3,595.6c-0.2,2.7-3.2,2.9-3.2,2.9c-8.9,1.4-10.8,4.8-10.8,4.8c-5.8,5.2-13.5,7.9-21.4,7.2
	c-10.9-1-9.8-3-9.3-6.6c4.9,1.2,14.2,2.9,19.6-0.1c7.6-4.1,13-7,13-7l12-6C242.4,592.8,242.4,594.6,242.3,595.6z"/>
<path class="st1-13" d="M309.1,610.2c-0.6,1.1-1.6,1.9-2.7,2.3h-0.2c-3.6,0.7-17.6,0.7-17.6,0.7s-14.1-10.9-18.4-11.2
	c-2.7-0.3-5.1-1.8-6.6-4c0,0,0.1-2.5,0.4-5.5c0.3-3.5,0.9-7.6,1.9-8.6c1.9-2,2.3-4.7,6.6-3c0,0,6.1-10.7,13.2-2.4l7.4,11.2
	c0,0,1.4,4.7,10.8,9.7c3.8,2,5.5,4.4,5.9,6.5C310.1,607.4,309.9,608.9,309.1,610.2z"/>
<path class="st1-8" d="M309.1,610.2c-0.8,0.7-1.8,1.5-2.7,2.3h-0.2c-3.6,0.7-17.6,0.7-17.6,0.7s-14.1-10.9-18.4-11.2
	c-2.7-0.3-5.1-1.8-6.6-4c0,0,0.1-2.5,0.4-5.5c4.3,1.3,10.9,3.6,12.7,6.1c2.7,3.8,10.9,9,10.9,9s15.3-1.5,22.1-1.7
	C310.1,607.4,309.9,608.9,309.1,610.2z"/>
<path class="st1-11" d="M249.4,228.1l-20.2,21.4c0,0-24.5-1.8-20.2-9c2.2-3.7,2.5-11.4,2.3-18.1c-0.2-6.5-0.9-12-0.9-12
	s34.3-17.1,31.7-1.1c-0.6,3-0.6,6.1-0.1,9.1C243.6,226.4,249.4,228.1,249.4,228.1z"/>
<path class="st1-8" d="M242.2,209.2c-0.6,3-0.6,6.1-0.1,9.1c-4.6,4.6-10.9,3.6-18,3.6c-4.7,0-9.7,0.1-13.4-2.1
	c-0.2-6.5-0.2-9.4-0.2-9.4S244.9,193.3,242.2,209.2z"/>
<path class="st1-11" d="M249.4,199.2c0,14-11.3,25.3-25.3,25.3s-25.3-11.3-25.3-25.3s11.3-25.3,25.3-25.3
	C238.1,173.9,249.4,185.2,249.4,199.2z"/>
<path class="st1-8" d="M283.9,389c-6.3,15-46.8,15.3-46.8,15.3V388l-2.5-0.2c1.1,4.7-1.5,16.1-1.5,16.1c-32,4.5-39.8-13.7-39.8-13.7
	l1.1-6.2l25,2.2c0,0,60.6-4.1,63.4-0.7C283.3,386.6,283.7,387.8,283.9,389z"/>
<path class="st1-14" d="M237,402.4V386l-2.5-0.2c1.1,4.7-1.5,16.1-1.5,16.1c-24.1,3.4-34.5-6.1-38.1-11c-0.7-0.8-1.2-1.8-1.7-2.7
	l9.8-55l2.3-81l3.5-14.2l0.8-6.8v-0.1h0.1l2.5,1.1l14.9,6.5l16.9-12.8l0.2-0.2l0.9-0.6l1.4,1.1l3.5,2.8l11.2,72.1
	c0,0,19.4,55.5,23,77.9c0.1,0.9,0.3,1.7,0.4,2.5C287,402,237,402.4,237,402.4z"/>
<circle class="st1-15" cx="229" cy="240.3" r="1.4"/>
<circle class="st1-15" cx="229.7" cy="253.4" r="1.4"/>
<circle class="st1-15" cx="231.1" cy="274.7" r="1.4"/>
<circle class="st1-15" cx="233.5" cy="297.6" r="1.4"/>
<circle class="st1-15" cx="234.9" cy="319.1" r="1.4"/>
<circle class="st1-15" cx="236.4" cy="342" r="1.4"/>
<circle class="st1-15" cx="235.8" cy="364.7" r="1.4"/>
<path class="st1-8" d="M210.7,341.2c0,0-1.6,21.1-4.6,27.2s-4.3,23.3-4.3,23.3L195,391c-0.7-0.8-1.2-1.8-1.7-2.7l9.8-55l2.3-81
	l3.5-14.2l0.8-6.8h0.1c0.8-0.4,1.7-0.4,2.4,0l0.3,0.2c-0.1,0.3-0.2,0.6-0.3,0.9c-2.7,8.4-3.7,23.8-3.7,23.8s3.8,28.3,4.3,41.4
	S210.7,341.2,210.7,341.2z"/>
<path class="st1-8" d="M193.8,387.7c-0.1,0.2-0.2,0.3-0.3,0.5c-2.7,4.5-9.4,7.4-11.4,8.1l-0.6-1.1l1.4-6.7l7.5-3.1
	C191.6,386.1,192.7,386.9,193.8,387.7z"/>
<path class="st1-13" d="M175.6,280.2l-6.2,3.7l-5.7,25.3c0,0-7.1,21.5-1.6,36.8s8.6,24.1,8.6,24.1s2.2,17.4,5.5,18.8s4.7,2.2,4.7,2.2
	l0.6,4.2c0,0,8.9-3,12.1-8.3s-2.3-18.6-2.3-18.6s-4.7-11.3-3.5-16.5s-2.4-19-2.4-19.4s-0.3-7.7,2.3-13.3s0.9-8,0.9-8l-1.6-16.1
	L175.6,280.2z"/>
<path class="st1-8" d="M284.4,384.3c0,0-16.5,6.2-21.8,0.8s-4.7-31.1-4.7-31.1s-5-47.3-8.2-55.1s-1.5-63.8-1.5-63.8s-2.1-7.3-4-9.1
	c-0.1-0.1-0.2-0.2-0.4-0.3l0.6,0.1l2.3,0.5l3.5,2.8l11.2,72.1c0,0,19.4,55.5,23,77.9L284.4,384.3z"/>
<path class="st1-8" d="M303.4,385.9h-0.2c-2.1,0.3-20.5,2.5-20.5-1.3c0-0.4,0-0.9,0.1-1.3l17-1.7l3.4,3.5l0,0c0.1,0.2,0.1,0.4,0.2,0.6
	V385.9z"/>
<path class="st1-13" d="M285.8,254.8l12.1,6.3c0,0,10,26,11.7,37.2c0,0,7.5,29.9,2.3,42.2s-4.7,36.7-4.7,36.7s-3,4.5-4.2,3.3
	s0.4,4.7,0.4,4.7s-20.6,2.7-20.7-1.3s4.7-23.4,4.7-23.4s1.3-46.1-0.5-53.3S285.8,254.8,285.8,254.8z"/>
<path class="st1-8" d="M249.8,303.9c0,0-6.8,16.6-9,17.7s0.4,5.5,0.4,5.5S253.6,309.8,249.8,303.9z"/>
<path class="st1-8" d="M245.7,245.6c0.1-0.3-8.1,8-10.3,9.3S243.4,254.8,245.7,245.6z"/>
<path class="st1-8" d="M223,302.6c0,0-12.5,8.1-10.8,11.3S223,302.6,223,302.6z"/>
<path class="st1-8" d="M245.6,420.4c0,0,10.6,6.8,27.2,8.5L245.6,420.4z"/>
<path class="st1-8" d="M220.1,436.8c0,0,9.9,12.4,14.4,12.7S220.1,436.8,220.1,436.8z"/>
<path class="st1-8" d="M233.9,485.3c-0.4,0.2-5.6,11.2-10.8,11.5S233.9,485.3,233.9,485.3z"/>
<path class="st1-8" d="M279.6,509.3c0,0,9.8-2.2,11.9,4.8C291.5,514.2,290.8,512,279.6,509.3z"/>
<path class="st1-8" d="M273,549.4c0,0,11.8-2.4,14.3,0.9S273,549.4,273,549.4z"/>
<path class="st1-8" d="M239.5,555c0,0.1-12,2.4-11.6,3.9s12.9,1.3,13.3-1.1C241.5,556.6,240.8,555.3,239.5,555
	C239.6,555,239.6,555,239.5,555z"/>
<path class="st1-8" d="M269,565.4c0,0,19.8-2.4,18.5,1.8S269,565.4,269,565.4z"/>
<path class="st1-8" d="M165.4,321.6c0.1,0.3,13,2.1,14.8,6.2c0,0-12.7-5.9-14.7-5.9"/>
<path class="st1-8" d="M183.7,355.5c0,0-10.7,3.4-10,8.5S172.6,361.6,183.7,355.5z"/>
<path class="st1-8" d="M178.7,381.6c0,0,3.9-5.4,7.6-4.4S178.7,381.6,178.7,381.6z"/>
<path class="st1-8" d="M239.9,179.4c-0.4,0.4-0.8,0.7-1.3,0.9c-3.1,1.8-4,4.6-5.4,7.8c-1.4,2.9-2.9,6-5.6,7.7c-3.6,2.1-8.3,1.4-12,3.2
	c-3.4,1.8-5.3,5.4-5,9.1c0.2,1.4,0.6,2.8,1,4.2c0.8,3,1.2,6,1.1,9.1c0,0.1,0,0.2,0,0.3c-12.5-6.3-17.5-21.5-11.3-33.9
	c6.3-12.5,21.5-17.5,33.9-11.3C237.1,177.4,238.6,178.3,239.9,179.4L239.9,179.4z"/>
<path class="st1-12" d="M239.3,171.8c-2.8-5.8-8.8-9.5-15-11.3c-4.7-1.4-9.9-1.8-14.6-0.3c-2.6,1-5.2,2.2-7.6,3.6
	c-4.7,2.4-9.9,4.3-13.4,8.1c-0.9,0.8-1.4,2-1.3,3.3c0.3,0.9,0.8,1.7,1.3,2.4c1,1.8,0.7,4,0.1,6s-1.7,3.7-2.2,5.7s-0.3,4.3,1.2,5.7
	c0.7,0.6,1.4,1.1,2.2,1.6c0.8,0.7,1.5,1.5,2.1,2.4l4.2,5.7c2,2.5,3.7,5.2,5.2,8c0.9,2.1,2,4.2,3.2,6.1c1.4,1.9,3.6,3.3,5.9,3.1
	c0.4,0,0.7-0.2,0.9-0.4c0.1-0.2,0.1-0.4,0.1-0.6c0.1-3.1-0.3-6.1-1.1-9.1c-0.5-1.4-0.8-2.8-1.1-4.2c-0.4-3.8,1.6-7.4,5-9.1
	c3.7-1.9,8.4-1.1,12-3.2c2.8-1.7,4.3-4.8,5.6-7.7c1.5-3.2,2.3-6,5.4-7.8S240.8,174.9,239.3,171.8z"/>
<path class="st1-8" d="M228,585.2c0,0,3.9,4.9,2.9,7.7S228,585.2,228,585.2z"/>
<path class="st1-8" d="M280.3,597.5c0,0,0.9-6.6,4.3-6.7s3.6-0.3,6.2,0.7s5.1,2.6,4.3,2.8s-4.5-3.8-8.4-1.7
	C284.4,593.9,282.2,595.6,280.3,597.5z"/>
<path class="st1-8" d="M216.4,247l10.8-7.6c0,0-15.9-9.4-17.7-8s-3.2,13.1-3.2,13.1L216.4,247z"/>
<path class="st1-14" d="M216.4,246.5l10.8-7.8c0,0-15.9-9.4-17.7-8s-3.2,13.8-3.2,13.8L216.4,246.5z"/>
<path class="st1-16" d="M216.4,246.5l10.8-7.8c0,0-15.9-9.4-17.7-8s-3.2,13.8-3.2,13.8L216.4,246.5z"/>
<path class="st1-13" d="M211.3,230.8l-0.3-0.2c-1-0.5-2.1-0.4-3,0.3l-32.5,26.4c0,0-7.1,9.8-6.1,26.6l19.1,27.1c0,0,2.2-9.2,4.8-7.5
	c0,0,3.7,47.1,0,53.9s-5.3,32.2-5.3,32.2l12.6,1.4c0,0,1.3-17.2,4.3-23.3s4.6-27.2,4.6-27.2s2.7-30.6,2.2-43.8s-4.3-41.4-4.3-41.4
	S208.4,238.9,211.3,230.8z"/>
<path class="st1-8" d="M243.6,242.1l-13.5-5c0,0,17.2-18.8,19.3-8.4L243.6,242.1z"/>
<path class="st1-14" d="M243.6,241.5l-13.5-5c0,0,17.2-18.9,19.3-8.4L243.6,241.5z"/>
<path class="st1-16" d="M243.6,241.5l-13.5-5c0,0,17.2-18.9,19.3-8.4L243.6,241.5z"/>
<path class="st1-8" d="M243.2,225.5c0.2,0,0.4,0,0.6,0.1L243.2,225.5z"/>
<path class="st1-13" d="M244.5,224.2l35.8,7.7c0,0,9.9,2.2,17,26.9s-9.7,55.1-9.7,55.1l-3.7-3.2l1.9,72.3c0,0-16.5,6.2-21.8,0.8
	s-4.7-31.1-4.7-31.1s-5-47.3-8.2-55.1s-1.6-63.8-1.6-63.8S246.5,223.7,244.5,224.2z"/>
<path class="st1-8" d="M277.3,270.2c-0.5,0.5-1.1,22.3,1.1,39c1.3,10.1,3.4,20.2,6.2,30l-3.3-66.7
	C281.3,272.5,278.8,268.8,277.3,270.2z"/>
<path class="st1-8" d="M272.9,251.4c0.9,0.5,4.7,9.6,3,13.4S272.9,251.4,272.9,251.4z"/>
<path class="st1-8" d="M239.1,171.8c-1.8-3.5-4.5-6.3-7.9-8.3c2.5,1.8,4.5,4.2,5.9,6.9c1.5,3.1,1.1,6.1-1.9,7.9s-4,4.6-5.4,7.8
	c-1.4,2.9-2.9,6-5.6,7.7c-3.6,2.1-8.3,1.4-12,3.2c-3.4,1.8-5.3,5.4-5,9.2c0.2,1.4,0.6,2.8,1,4.2c0.8,3,1.2,6,1.1,9.1
	c0,0.2,0,0.4-0.1,0.6c-0.2,0.3-0.6,0.5-0.9,0.4c-0.9,0.1-1.9-0.1-2.7-0.5c1.2,1.2,2.9,1.9,4.7,1.8c0.5,0.1,0.9-0.3,1-0.8
	c0-0.1,0-0.1,0-0.2c0.1-3.1-0.3-6.1-1.1-9.1c-0.5-1.4-0.8-2.8-1.1-4.2c-0.4-3.8,1.6-7.4,5-9.1c3.7-1.9,8.4-1.1,12-3.2
	c2.8-1.7,4.3-4.8,5.6-7.7c1.5-3.2,2.3-6,5.4-7.8S240.6,174.9,239.1,171.8z"/>
</svg>
